<svg width="24" height="34" viewBox="0 0 24 34" fill="none" xmlns="http://www.w3.org/2000/svg">
<path d="M24 1.2V32.4C24 32.7183 23.8736 33.0235 23.6485 33.2485C23.4235 33.4736 23.1183 33.6 22.8 33.6H1.2C0.881742 33.6 0.576518 33.4736 0.351474 33.2485C0.126431 33.0235 2.29243e-06 32.7183 2.29243e-06 32.4V8.4C-0.000545523 8.11962 0.0971049 7.8479 0.276002 7.632L6.276 0.432001C6.38883 0.296542 6.53012 0.187606 6.68982 0.112941C6.84952 0.0382758 7.02371 -0.000284716 7.2 1.58264e-06H22.8C23.1183 1.58264e-06 23.4235 0.12643 23.6485 0.351473C23.8736 0.576517 24 0.881742 24 1.2Z" fill="#D9D9D9"/>
<path d="M9.6 1.58264e-06V9.6C9.6 9.91826 9.47357 10.2235 9.24853 10.4485C9.02349 10.6736 8.71826 10.8 8.4 10.8H2.29243e-06V8.4C-0.000545523 8.11962 0.0971049 7.8479 0.276002 7.632L6.276 0.432001C6.38883 0.296542 6.53012 0.187606 6.68982 0.112941C6.84952 0.0382758 7.02371 -0.000284716 7.2 1.58264e-06H9.6Z" fill="#B4A6A6"/>
</svg>
